{
    "asset" : {
        "generator" : "Khronos glTF Blender I/O v1.8.19",
        "version" : "2.0"
    },
    "scene" : 0,
    "scenes" : [
        {
            "name" : "Scene",
            "nodes" : [
                0
            ]
        }
    ],
    "nodes" : [
        {
            "mesh" : 0,
            "name" : "yellowhouse",
            "rotation" : [
                0.7071068286895752,
                0,
                0,
                0.7071068286895752
            ],
            "scale" : [
                0.20000000298023224,
                0.20000000298023224,
                0.20000000298023224
            ],
            "translation" : [
                -51,
                0,
                0
            ]
        }
    ],
    "meshes" : [
        {
            "name" : "yellowhouse",
            "primitives" : [
                {
                    "attributes" : {
                        "POSITION" : 0,
                        "NORMAL" : 1
                    },
                    "indices" : 2
                }
            ]
        }
    ],
    "accessors" : [
        {
            "bufferView" : 0,
            "componentType" : 5126,
            "count" : 12620,
            "max" : [
                557.7416381835938,
                40,
                0
            ],
            "min" : [
                0,
                -1.214306433183765e-14,
                -672.0416870117188
            ],
            "type" : "VEC3"
        },
        {
            "bufferView" : 1,
            "componentType" : 5126,
            "count" : 12620,
            "type" : "VEC3"
        },
        {
            "bufferView" : 2,
            "componentType" : 5123,
            "count" : 17304,
            "type" : "SCALAR"
        }
    ],
    "bufferViews" : [
        {
            "buffer" : 0,
            "byteLength" : 151440,
            "byteOffset" : 0
        },
        {
            "buffer" : 0,
            "byteLength" : 151440,
            "byteOffset" : 151440
        },
        {
            "buffer" : 0,
            "byteLength" : 34608,
            "byteOffset" : 302880
        }
    ],
    "buffers" : [
        {
            "byteLength" : 337488,
            "uri" : "data:application/octet-stream;base64,"
        }
    ]
}
